subject10_loaded_free_trial03_ground_reaction
version=1
nRows=44
nColumns=19
inDegrees=no
endheader
time	ground_force_r_vx	ground_force_r_vy	ground_force_r_vz	ground_force_r_px	ground_force_r_py	ground_force_r_pz	ground_torque_r_x	ground_torque_r_y	ground_torque_r_z	ground_force_l_vx	ground_force_l_vy	ground_force_l_vz	ground_force_l_px	ground_force_l_py	ground_force_l_pz	ground_torque_l_x	ground_torque_l_y	ground_torque_l_z
0.579500	0.000000	0.000000	0.000000	-9.057721	0.000000	17.014520	0.000000	0.000000	0.000000	-117.177822	1022.813451	35.280931	0.212826	0.000000	-0.260346	0.000000	1.464663	0.000000
0.580000	0.000000	0.000000	0.000000	-9.009603	0.000000	16.930881	0.000000	0.000000	0.000000	-116.647409	1022.202021	35.222411	0.212990	0.000000	-0.260305	0.000000	1.465630	0.000000
0.580500	0.000000	0.000000	0.000000	-8.961641	0.000000	16.847514	0.000000	0.000000	0.000000	-116.116310	1021.583349	35.160248	0.213155	0.000000	-0.260264	0.000000	1.466384	0.000000
0.581000	0.000000	0.000000	0.000000	-8.913835	0.000000	16.764420	0.000000	0.000000	0.000000	-115.584595	1020.957393	35.094478	0.213319	0.000000	-0.260222	0.000000	1.466925	0.000000
0.581500	0.000000	0.000000	0.000000	-8.866186	0.000000	16.681597	0.000000	0.000000	0.000000	-115.052335	1020.324110	35.025141	0.213484	0.000000	-0.260180	0.000000	1.467257	0.000000
0.582000	0.000000	0.000000	0.000000	-8.818692	0.000000	16.599046	0.000000	0.000000	0.000000	-114.519603	1019.683459	34.952276	0.213649	0.000000	-0.260138	0.000000	1.467381	0.000000
0.582500	0.000000	0.000000	0.000000	-8.771354	0.000000	16.516766	0.000000	0.000000	0.000000	-113.986470	1019.035401	34.875923	0.213815	0.000000	-0.260096	0.000000	1.467302	0.000000
0.583000	0.000000	0.000000	0.000000	-8.724171	0.000000	16.434756	0.000000	0.000000	0.000000	-113.453006	1018.379899	34.796126	0.213981	0.000000	-0.260054	0.000000	1.467023	0.000000
0.583500	0.000000	0.000000	0.000000	-8.677144	0.000000	16.353016	0.000000	0.000000	0.000000	-112.919285	1017.716915	34.712930	0.214147	0.000000	-0.260011	0.000000	1.466548	0.000000
0.584000	0.000000	0.000000	0.000000	-8.630271	0.000000	16.271546	0.000000	0.000000	0.000000	-112.385376	1017.046411	34.626383	0.214313	0.000000	-0.259968	0.000000	1.465881	0.000000
0.584500	0.000000	0.000000	0.000000	-8.583553	0.000000	16.190344	0.000000	0.000000	0.000000	-111.851352	1016.368349	34.536535	0.214480	0.000000	-0.259924	0.000000	1.465023	0.000000
0.585000	0.000000	0.000000	0.000000	-8.536989	0.000000	16.109411	0.000000	0.000000	0.000000	-111.317285	1015.682691	34.443438	0.214647	0.000000	-0.259881	0.000000	1.463978	0.000000
0.585500	0.000000	0.000000	0.000000	-8.490579	0.000000	16.028747	0.000000	0.000000	0.000000	-110.783245	1014.989399	34.347148	0.214815	0.000000	-0.259837	0.000000	1.462751	0.000000
0.586000	0.000000	0.000000	0.000000	-8.444322	0.000000	15.948350	0.000000	0.000000	0.000000	-110.249304	1014.288432	34.247718	0.214982	0.000000	-0.259793	0.000000	1.461346	0.000000
0.586500	0.000000	0.000000	0.000000	-8.398220	0.000000	15.868221	0.000000	0.000000	0.000000	-109.715531	1013.579748	34.145206	0.215151	0.000000	-0.259748	0.000000	1.459770	0.000000
0.587000	0.000000	0.000000	0.000000	-8.352270	0.000000	15.788358	0.000000	0.000000	0.000000	-109.181996	1012.863302	34.039670	0.215319	0.000000	-0.259703	0.000000	1.458029	0.000000
0.587500	0.000000	0.000000	0.000000	-8.306474	0.000000	15.708762	0.000000	0.000000	0.000000	-108.648765	1012.139047	33.931170	0.215488	0.000000	-0.259659	0.000000	1.456129	0.000000
0.588000	0.000000	0.000000	0.000000	-8.260830	0.000000	15.629432	0.000000	0.000000	0.000000	-108.115907	1011.406937	33.819768	0.215657	0.000000	-0.259613	0.000000	1.454076	0.000000
0.588500	0.000000	0.000000	0.000000	-8.215339	0.000000	15.550367	0.000000	0.000000	0.000000	-107.583486	1010.666927	33.705528	0.215827	0.000000	-0.259568	0.000000	1.451877	0.000000
0.589000	0.000000	0.000000	0.000000	-8.170000	0.000000	15.471567	0.000000	0.000000	0.000000	-107.051570	1009.918977	33.588519	0.215997	0.000000	-0.259523	0.000000	1.449536	0.000000
0.589500	0.000000	0.000000	0.000000	-8.124814	0.000000	15.393032	0.000000	0.000000	0.000000	-106.520224	1009.163053	33.468812	0.216167	0.000000	-0.259477	0.000000	1.447059	0.000000
0.590000	0.000000	0.000000	0.000000	-8.079778	0.000000	15.314761	0.000000	0.000000	0.000000	-105.989512	1008.399121	33.346481	0.216338	0.000000	-0.259431	0.000000	1.444449	0.000000
0.590500	0.000000	0.000000	0.000000	-8.034895	0.000000	15.236754	0.000000	0.000000	0.000000	-105.459498	1007.627155	33.221606	0.216509	0.000000	-0.259385	0.000000	1.441710	0.000000
0.591000	0.000000	0.000000	0.000000	-7.990162	0.000000	15.159010	0.000000	0.000000	0.000000	-104.930247	1006.847127	33.094269	0.216680	0.000000	-0.259338	0.000000	1.438844	0.000000
0.591500	0.000000	0.000000	0.000000	-7.945581	0.000000	15.081529	0.000000	0.000000	0.000000	-104.401821	1006.059015	32.964555	0.216852	0.000000	-0.259292	0.000000	1.435853	0.000000
0.592000	0.000000	0.000000	0.000000	-7.901150	0.000000	15.004311	0.000000	0.000000	0.000000	-103.874284	1005.262797	32.832550	0.217024	0.000000	-0.259245	0.000000	1.432740	0.000000
0.592500	0.000000	0.000000	0.000000	-7.856870	0.000000	14.927354	0.000000	0.000000	0.000000	-103.347698	1004.458452	32.698341	0.217196	0.000000	-0.259198	0.000000	1.429510	0.000000
0.593000	0.000000	0.000000	0.000000	-7.812740	0.000000	14.850659	0.000000	0.000000	0.000000	-102.822125	1003.645964	32.562014	0.217369	0.000000	-0.259151	0.000000	1.426171	0.000000
0.593500	0.000000	0.000000	0.000000	-7.768760	0.000000	14.774225	0.000000	0.000000	0.000000	-102.297628	1002.825317	32.423655	0.217543	0.000000	-0.259104	0.000000	1.422729	0.000000
0.594000	0.000000	0.000000	0.000000	-7.724929	0.000000	14.698051	0.000000	0.000000	0.000000	-101.774268	1001.996496	32.283352	0.217717	0.000000	-0.259056	0.000000	1.419193	0.000000
0.594500	0.000000	0.000000	0.000000	-7.681248	0.000000	14.622138	0.000000	0.000000	0.000000	-101.252106	1001.159488	32.141194	0.217891	0.000000	-0.259009	0.000000	1.415571	0.000000
0.595000	0.000000	0.000000	0.000000	-7.637716	0.000000	14.546485	0.000000	0.000000	0.000000	-100.731202	1000.314280	31.997272	0.218066	0.000000	-0.258961	0.000000	1.411874	0.000000
0.595500	0.000000	0.000000	0.000000	-7.594333	0.000000	14.471090	0.000000	0.000000	0.000000	-100.211612	999.460864	31.851678	0.218242	0.000000	-0.258914	0.000000	1.408110	0.000000
0.596000	0.000000	0.000000	0.000000	-7.551099	0.000000	14.395955	0.000000	0.000000	0.000000	-99.693390	998.599227	31.704510	0.218417	0.000000	-0.258866	0.000000	1.404285	0.000000
0.596500	0.000000	0.000000	0.000000	-7.508013	0.000000	14.321078	0.000000	0.000000	0.000000	-99.176591	997.729360	31.555865	0.218594	0.000000	-0.258818	0.000000	1.400406	0.000000
0.597000	0.000000	0.000000	0.000000	-7.465076	0.000000	14.246459	0.000000	0.000000	0.000000	-98.661264	996.851249	31.405841	0.218771	0.000000	-0.258770	0.000000	1.396477	0.000000
0.597500	0.000000	0.000000	0.000000	-7.422286	0.000000	14.172097	0.000000	0.000000	0.000000	-98.147460	995.964884	31.254539	0.218948	0.000000	-0.258722	0.000000	1.392501	0.000000
0.598000	0.000000	0.000000	0.000000	-7.379644	0.000000	14.097992	0.000000	0.000000	0.000000	-97.635226	995.070257	31.102057	0.219126	0.000000	-0.258673	0.000000	1.388482	0.000000
0.598500	0.000000	0.000000	0.000000	-7.337149	0.000000	14.024144	0.000000	0.000000	0.000000	-97.124608	994.167357	30.948490	0.219305	0.000000	-0.258625	0.000000	1.384423	0.000000
0.599000	0.000000	0.000000	0.000000	-7.294802	0.000000	13.950553	0.000000	0.000000	0.000000	-96.615651	993.256176	30.793936	0.219484	0.000000	-0.258577	0.000000	1.380332	0.000000
0.599500	0.000000	0.000000	0.000000	-7.252601	0.000000	13.877216	0.000000	0.000000	0.000000	-96.108398	992.336705	30.638488	0.219664	0.000000	-0.258528	0.000000	1.376214	0.000000
0.600000	0.000000	0.000000	0.000000	-7.210547	0.000000	13.804136	0.000000	0.000000	0.000000	-95.602891	991.408938	30.482239	0.219844	0.000000	-0.258480	0.000000	1.372076	0.000000
0.600500	0.000000	0.000000	0.000000	-7.168639	0.000000	13.731310	0.000000	0.000000	0.000000	-95.099171	990.472869	30.325282	0.220024	0.000000	-0.258431	0.000000	1.367924	0.000000
0.601000	0.000000	0.000000	0.000000	-7.126878	0.000000	13.658738	0.000000	0.000000	0.000000	-94.597275	989.528494	30.167705	0.220206	0.000000	-0.258383	0.000000	1.363766	0.000000
